<svg width="20" height="15" viewBox="0 0 20 15" fill="none" xmlns="http://www.w3.org/2000/svg">
<g clip-path="url(#clip0_755_10492)">
<path fill-rule="evenodd" clip-rule="evenodd" d="M12.7996 14.58C16.7764 14.58 19.9996 11.3165 19.9996 7.29C19.9996 3.26349 16.7764 0 12.7996 0C8.82281 0 5.59961 3.26349 5.59961 7.29C5.59961 11.3165 8.82281 14.58 12.7996 14.58ZM12.7996 10.125C14.346 10.125 15.5996 8.85573 15.5996 7.29C15.5996 5.72427 14.346 4.455 12.7996 4.455C11.2532 4.455 9.99961 5.72427 9.99961 7.29C9.99961 8.85573 11.2532 10.125 12.7996 10.125Z" fill="#8A42F9"/>
<path d="M5.6 2.43018H0L2.98638 12.1502H5.6V2.43018Z" fill="#8A42F9"/>
</g>
<defs>
<clipPath id="clip0_755_10492">
<rect width="20" height="15" fill="white"/>
</clipPath>
</defs>
</svg>
