<svg width="36" height="15" viewBox="0 0 36 15" fill="none" xmlns="http://www.w3.org/2000/svg">
<g clip-path="url(#clip0_755_10445)">
<path d="M15.6481 13.3246H12.8164L14.5876 2.0603H17.4191L15.6481 13.3246Z" fill="#00579F"/>
<path d="M25.9123 2.33552C25.3538 2.10761 24.4678 1.85596 23.3725 1.85596C20.5761 1.85596 18.6069 3.38974 18.5948 5.58259C18.5716 7.20047 20.0047 8.0991 21.0766 8.6385C22.1721 9.18978 22.5445 9.54954 22.5445 10.0409C22.5333 10.7956 21.6593 11.1434 20.844 11.1434C19.7134 11.1434 19.1077 10.964 18.1871 10.5442L17.8142 10.3642L17.418 12.8928C18.0822 13.204 19.3058 13.4802 20.5761 13.4923C23.5473 13.4923 25.4817 11.9823 25.5045 9.64542C25.5159 8.36316 24.7592 7.38061 23.1277 6.57772C22.1373 6.06232 21.5307 5.71478 21.5307 5.18744C21.5424 4.70803 22.0437 4.217 23.1618 4.217C24.0823 4.19294 24.7587 4.42054 25.271 4.6483L25.5272 4.76792L25.9123 2.33552Z" fill="#00579F"/>
<path d="M29.676 9.33405C29.9092 8.68695 30.8065 6.18241 30.8065 6.18241C30.7948 6.20646 31.0393 5.52334 31.1791 5.10398L31.377 6.07458C31.377 6.07458 31.9132 8.77089 32.0297 9.33405C31.5872 9.33405 30.2353 9.33405 29.676 9.33405ZM33.1714 2.0603H30.9811C30.3056 2.0603 29.7925 2.26385 29.501 2.99491L25.2949 13.3245H28.2661C28.2661 13.3245 28.7553 11.9341 28.8604 11.6347C29.1864 11.6347 32.0768 11.6347 32.4961 11.6347C32.5774 12.0302 32.834 13.3245 32.834 13.3245H35.4558L33.1714 2.0603Z" fill="#00579F"/>
<path d="M10.4521 2.0603L7.67897 9.74151L7.37593 8.18367C6.86323 6.38611 5.25531 4.43313 3.46094 3.46205L6.00105 13.3126H8.99549L13.4464 2.0603H10.4521Z" fill="#00579F"/>
<path d="M5.10252 2.0603H0.546609L0.5 2.2879C4.0539 3.22266 6.40759 5.47588 7.37458 8.18415L6.3842 3.00717C6.22114 2.28774 5.72005 2.08403 5.10252 2.0603Z" fill="#FAA61A"/>
</g>
<defs>
<clipPath id="clip0_755_10445">
<rect width="35" height="15" fill="white" transform="translate(0.5)"/>
</clipPath>
</defs>
</svg>
