<svg width="16" height="15" viewBox="0 0 16 15" fill="none" xmlns="http://www.w3.org/2000/svg">
<g clip-path="url(#clip0_755_10431)">
<path d="M1.67189 2.46973H13.3906C14.0352 2.46973 14.5625 2.99707 14.5625 3.64161V5.04788C14.5625 5.69242 14.0352 6.21976 13.3906 6.21976H1.67189C1.02734 6.2197 0.5 5.69236 0.5 5.04785V3.64158C0.5 2.99707 1.02734 2.46973 1.67189 2.46973Z" fill="#A86A3F"/>
<path d="M4.23828 3.72324L11.5742 1.77794C11.8203 1.70763 12.0781 1.85997 12.1484 2.10607L13.3672 6.60608C13.4375 6.85218 13.2851 7.10997 13.039 7.18028L3.48829 9.72323C3.24219 9.79354 2.98439 9.6412 2.91408 9.3951L2.02344 6.09043L4.23828 3.72324Z" fill="#5EBA6D"/>
<path d="M12.091 6.46531L10.509 6.88717C10.3801 6.92234 10.2512 6.852 10.2278 6.7231C10.1926 6.5942 10.2629 6.46528 10.3918 6.44186L11.7512 6.07858L11.0247 3.35984L9.6653 3.72312C9.5364 3.75829 9.40747 3.68795 9.38405 3.55905C9.34888 3.43015 9.41922 3.30123 9.54812 3.27781L11.1301 2.85595C11.259 2.82078 11.388 2.89112 11.4114 3.02001L12.2551 6.18406C12.2902 6.31296 12.2199 6.44186 12.091 6.46531ZM5.52854 8.23485L3.94652 8.65671C3.81762 8.69188 3.68869 8.62154 3.66527 8.49264L2.82152 5.32859C2.78635 5.19969 2.85669 5.07076 2.98559 5.04735L4.56761 4.62549C4.69651 4.59032 4.82544 4.66066 4.84885 4.78955C4.88402 4.91845 4.81368 5.04738 4.68479 5.07079L3.32542 5.43407L4.05197 8.15281L5.41134 7.78954C5.54023 7.75437 5.66916 7.82471 5.69258 7.9536C5.72775 8.07078 5.65744 8.19968 5.52854 8.23485Z" fill="#B3F0BD"/>
<path d="M0.593784 5.36407C2.6797 4.16874 8.30473 0.875761 8.30473 0.875761C8.52738 0.746864 8.82035 0.817174 8.94927 1.03983L11.293 5.07108C11.4219 5.29373 11.3399 5.57497 11.1172 5.7039L2.53908 10.6258C2.31643 10.7547 2.02346 10.6844 1.89454 10.4617C1.89454 10.4617 1.2383 9.12577 0.582031 8.00075C0.582061 5.36407 0.593784 6.23124 0.593784 5.36407Z" fill="#5EBA6D"/>
<path d="M10.0966 4.94184L8.456 2.1059C8.38569 1.98872 8.24507 1.95355 8.13959 2.02386L6.72163 2.84417C6.60446 2.91448 6.56929 3.0551 6.6396 3.16058C6.70991 3.27775 6.85053 3.31292 6.95601 3.24261L8.17476 2.53948L9.58102 4.97698L8.36227 5.68011C8.2451 5.75042 8.20993 5.89104 8.28024 5.99652C8.35055 6.1137 8.49117 6.14887 8.59665 6.07856L10.0146 5.25825C10.1201 5.19966 10.1669 5.05904 10.0966 4.94184ZM3.88569 8.25826L2.66694 8.96139L1.26067 6.52386L2.47942 5.82073C2.5966 5.75042 2.63177 5.6098 2.56146 5.50432C2.49115 5.38715 2.35053 5.35198 2.24505 5.42229L0.827089 6.24259C0.709916 6.3129 0.674746 6.45352 0.745056 6.559L2.38567 9.39495C2.45598 9.51212 2.5966 9.54729 2.70208 9.47698L4.12003 8.65667C4.23721 8.58636 4.27238 8.44574 4.20207 8.34026C4.14348 8.23481 4.00286 8.18792 3.88569 8.25826ZM4.48334 4.12154C3.581 4.63715 3.27631 5.78559 3.79193 6.68793C4.31927 7.59027 5.45599 7.89496 6.35833 7.37934C7.26067 6.86372 7.56535 5.71528 7.04974 4.81294C6.52239 3.9223 5.38568 3.60592 4.48334 4.12154ZM10.0966 4.94184L8.456 2.1059C8.38569 1.98872 8.24507 1.95355 8.13959 2.02386L6.72163 2.84417C6.60446 2.91448 6.56929 3.0551 6.6396 3.16058C6.70991 3.27775 6.85053 3.31292 6.95601 3.24261L8.17476 2.53948L9.58102 4.97698L8.36227 5.68011C8.2451 5.75042 8.20993 5.89104 8.28024 5.99652C8.35055 6.1137 8.49117 6.14887 8.59665 6.07856L10.0146 5.25825C10.1201 5.19966 10.1669 5.05904 10.0966 4.94184ZM3.88569 8.25826L2.66694 8.96139L1.26067 6.52386L2.47942 5.82073C2.5966 5.75042 2.63177 5.6098 2.56146 5.50432C2.49115 5.38715 2.35053 5.35198 2.24505 5.42229L0.827089 6.24259C0.709916 6.3129 0.674746 6.45352 0.745056 6.559L2.38567 9.39495C2.45598 9.51212 2.5966 9.54729 2.70208 9.47698L4.12003 8.65667C4.23721 8.58636 4.27238 8.44574 4.20207 8.34026C4.14348 8.23481 4.00286 8.18792 3.88569 8.25826ZM4.48334 4.12154C3.581 4.63715 3.27631 5.78559 3.79193 6.68793C4.31927 7.59027 5.45599 7.89496 6.35833 7.37934C7.26067 6.86372 7.56535 5.71528 7.04974 4.81294C6.52239 3.9223 5.38568 3.60592 4.48334 4.12154Z" fill="#B3F0BD"/>
<path d="M13.8594 14.1885H1.67189C1.02734 14.1885 0.5 13.6611 0.5 13.0166V4.57911H13.8594C14.5039 4.57911 15.0313 5.10645 15.0313 5.751V13.0166C15.0312 13.6611 14.5039 14.1885 13.8594 14.1885ZM1.43751 4.57911H0.5V3.6416C0.5 4.15722 0.921861 4.57911 1.43751 4.57911Z" fill="#C47E4D"/>
<path d="M15.0312 11.2588H13.1562C12.2539 11.2588 11.5156 10.5205 11.5156 9.61815C11.5156 8.71581 12.2539 7.97754 13.1562 7.97754H15.0312C15.2891 7.97754 15.5 8.18847 15.5 8.44629V10.79C15.5 11.0478 15.2891 11.2588 15.0312 11.2588Z" fill="#A86A3F"/>
<path d="M13.1563 8.68066C13.6719 8.68066 14.0938 9.10252 14.0938 9.61817C14.0938 10.1338 13.6719 10.5557 13.1563 10.5557C12.6406 10.5557 12.2188 10.1338 12.2188 9.61817C12.2188 9.10252 12.6406 8.68066 13.1563 8.68066Z" fill="#EFC75E"/>
<path d="M13.3906 10.3213C12.875 10.3213 12.4531 9.89943 12.4531 9.38379C12.4531 9.18458 12.5117 8.99707 12.6172 8.84473C12.3711 9.00879 12.2188 9.29003 12.2188 9.61816C12.2188 10.1338 12.6406 10.5557 13.1563 10.5557C13.4727 10.5557 13.7539 10.3916 13.9297 10.1572C13.7773 10.2627 13.5898 10.3213 13.3906 10.3213Z" fill="#D7B354"/>
<path d="M13.8594 13.7197H1.67189C1.02734 13.7197 0.5 13.1924 0.5 12.5479V13.0166C0.5 13.6611 1.02734 14.1885 1.67189 14.1885H13.8594C14.5039 14.1885 15.0313 13.6611 15.0313 13.0166V12.5479C15.0312 13.1924 14.5039 13.7197 13.8594 13.7197Z" fill="#B27245"/>
<path d="M13.8594 4.57911H1.43751C0.921861 4.57911 0.5 4.15722 0.5 3.6416V4.11036C0.5 4.62597 0.921861 5.04787 1.43751 5.04787H13.8594C14.5039 5.04787 15.0313 5.57521 15.0313 6.21975V5.751C15.0312 5.10645 14.5039 4.57911 13.8594 4.57911Z" fill="#CA8B5F"/>
</g>
<defs>
<clipPath id="clip0_755_10431">
<rect width="15" height="15" fill="white" transform="translate(0.5)"/>
</clipPath>
</defs>
</svg>
