<svg width="20" height="15" viewBox="0 0 20 15" fill="none" xmlns="http://www.w3.org/2000/svg">
<g clip-path="url(#clip0_755_10460)">
<path d="M12.4445 10.7712H7.41211V1.68384H12.4445V10.7712Z" fill="#6C6BBD"/>
<path d="M19.0548 9.80714V9.58301H18.9967L18.9294 9.73699L18.8625 9.58301H18.804V9.80714H18.8453V9.63816L18.9082 9.78401H18.951L19.0139 9.63776V9.80714H19.0548ZM18.6859 9.80714V9.62126H18.7604V9.58341H18.5703V9.62126H18.6449V9.80714H18.6859Z" fill="#0099DF"/>
<path d="M16.5396 14.7956V14.8335H16.5744C16.582 14.8335 16.5886 14.8316 16.593 14.8287C16.5977 14.8258 16.6003 14.8206 16.6003 14.8144C16.6003 14.8082 16.5977 14.8034 16.593 14.8004C16.5886 14.7971 16.582 14.7956 16.5744 14.7956H16.5396ZM16.5747 14.7692C16.5926 14.7692 16.6065 14.7733 16.6164 14.7813C16.6263 14.7894 16.631 14.8004 16.631 14.8144C16.631 14.8262 16.6274 14.8357 16.6193 14.8434C16.6117 14.8507 16.6003 14.8555 16.586 14.8574L16.6321 14.9106H16.5963L16.5535 14.8577H16.5396V14.9106H16.5096V14.7692H16.5747ZM16.5656 14.9591C16.582 14.9591 16.5974 14.9562 16.6113 14.95C16.6255 14.9437 16.638 14.9353 16.6486 14.9246C16.6592 14.914 16.6676 14.9014 16.6738 14.8867C16.6797 14.8724 16.6829 14.857 16.6829 14.8405C16.6829 14.8239 16.6797 14.8085 16.6738 14.7942C16.6676 14.7798 16.6592 14.767 16.6486 14.7564C16.638 14.7457 16.6255 14.7372 16.6113 14.7313C16.5974 14.7251 16.582 14.7221 16.5656 14.7221C16.5491 14.7221 16.5334 14.7251 16.5191 14.7313C16.5045 14.7372 16.4917 14.7457 16.4811 14.7564C16.4705 14.767 16.4621 14.7798 16.4562 14.7942C16.45 14.8085 16.4471 14.8239 16.4471 14.8405C16.4471 14.857 16.45 14.8724 16.4562 14.8867C16.4621 14.9014 16.4705 14.914 16.4811 14.9246C16.4917 14.9353 16.5045 14.9437 16.5191 14.95C16.5334 14.9562 16.5491 14.9591 16.5656 14.9591ZM16.5656 14.688C16.5871 14.688 16.6069 14.692 16.6255 14.7001C16.6445 14.7078 16.6607 14.7189 16.6749 14.7328C16.6888 14.7464 16.6998 14.7626 16.7078 14.7813C16.7159 14.7997 16.7199 14.8195 16.7199 14.8405C16.7199 14.8614 16.7159 14.8813 16.7078 14.8996C16.6998 14.918 16.6888 14.9342 16.6749 14.9478C16.6607 14.9617 16.6445 14.9728 16.6255 14.9808C16.6069 14.9889 16.5871 14.993 16.5656 14.993C16.5436 14.993 16.5235 14.9889 16.5045 14.9808C16.4855 14.9728 16.4691 14.9617 16.4551 14.9478C16.4412 14.9342 16.4302 14.918 16.4222 14.8996C16.4142 14.8813 16.4102 14.8614 16.4102 14.8405C16.4102 14.8195 16.4142 14.7997 16.4222 14.7813C16.4302 14.7626 16.4412 14.7464 16.4551 14.7328C16.4691 14.7189 16.4855 14.7078 16.5045 14.7001C16.5235 14.692 16.5436 14.688 16.5656 14.688Z" fill="#231F20"/>
<path d="M14.1408 13.3373C14.2077 13.3373 14.3039 13.3502 14.3774 13.3792L14.275 13.6937C14.2048 13.6647 14.1346 13.6552 14.0673 13.6552C13.8501 13.6552 13.7415 13.7963 13.7415 14.0498V14.9103H13.4091V13.3759H13.7382V13.5622C13.8245 13.4274 13.9492 13.3373 14.1408 13.3373ZM12.9129 13.6809H12.3698V14.3742C12.3698 14.5282 12.4239 14.6311 12.5903 14.6311C12.6766 14.6311 12.7852 14.6021 12.884 14.5444L12.9798 14.8299C12.8745 14.9037 12.7084 14.9489 12.5647 14.9489C12.1716 14.9489 12.0345 14.7369 12.0345 14.3805V13.6809H11.7244V13.3759H12.0345V12.9104H12.3698V13.3759H12.9129V13.6809ZM8.66032 14.0083C8.69578 13.7867 8.82959 13.6357 9.06623 13.6357C9.28012 13.6357 9.41761 13.7705 9.45273 14.0083H8.66032ZM9.79796 14.1431C9.79468 13.6647 9.50064 13.3373 9.07245 13.3373C8.6252 13.3373 8.31216 13.6647 8.31216 14.1431C8.31216 14.6307 8.63798 14.9486 9.09507 14.9486C9.32509 14.9486 9.53576 14.8909 9.72115 14.7336L9.55804 14.4863C9.43045 14.5892 9.26734 14.6469 9.11413 14.6469C8.90018 14.6469 8.70528 14.5473 8.65738 14.2714H9.79134C9.79467 14.2295 9.79796 14.1879 9.79796 14.1431ZM11.2577 13.7676C11.1653 13.7096 10.9769 13.6357 10.782 13.6357C10.5999 13.6357 10.4913 13.7033 10.4913 13.8158C10.4913 13.9182 10.6061 13.9473 10.7498 13.9664L10.9063 13.9888C11.2387 14.0373 11.4398 14.1784 11.4398 14.4481C11.4398 14.7402 11.1843 14.9489 10.7436 14.9489C10.4942 14.9489 10.2642 14.8846 10.0821 14.7497L10.2386 14.4896C10.3505 14.5763 10.5169 14.6502 10.7469 14.6502C10.9736 14.6502 11.095 14.583 11.095 14.4639C11.095 14.3776 11.0087 14.3291 10.8266 14.3037L10.6701 14.2813C10.3282 14.2328 10.1428 14.0788 10.1428 13.8286C10.1428 13.5236 10.3922 13.3373 10.7787 13.3373C11.0215 13.3373 11.242 13.3921 11.4015 13.4979L11.2577 13.7676ZM15.3553 13.6545C15.2869 13.6545 15.2236 13.6666 15.1648 13.6905C15.1062 13.7147 15.0554 13.7485 15.0126 13.7919C14.9698 13.8352 14.9362 13.8874 14.9117 13.948C14.8872 14.0086 14.8751 14.0755 14.8751 14.1482C14.8751 14.2214 14.8872 14.2879 14.9117 14.3485C14.9362 14.4091 14.9698 14.4613 15.0126 14.5047C15.0554 14.5481 15.1062 14.5819 15.1648 14.6061C15.2236 14.6303 15.2869 14.6421 15.3553 14.6421C15.4236 14.6421 15.4872 14.6303 15.5458 14.6061C15.6046 14.5819 15.6558 14.5481 15.6987 14.5047C15.7421 14.4613 15.7758 14.4091 15.8007 14.3485C15.8252 14.2879 15.8373 14.2214 15.8373 14.1482C15.8373 14.0755 15.8252 14.0086 15.8007 13.948C15.7758 13.8874 15.7421 13.8352 15.6987 13.7919C15.6558 13.7485 15.6046 13.7147 15.5458 13.6905C15.4872 13.6666 15.4236 13.6545 15.3553 13.6545ZM15.3553 13.3373C15.4737 13.3373 15.5835 13.3579 15.6844 13.3995C15.7853 13.4406 15.8727 13.4975 15.9462 13.5699C16.0201 13.6423 16.0775 13.7279 16.1192 13.8264C16.1609 13.9252 16.1817 14.0325 16.1817 14.1482C16.1817 14.264 16.1609 14.3713 16.1192 14.4701C16.0775 14.5686 16.0201 14.6546 15.9462 14.727C15.8727 14.7994 15.7853 14.856 15.6844 14.8974C15.5835 14.9386 15.4737 14.9592 15.3553 14.9592C15.2368 14.9592 15.1271 14.9386 15.0261 14.8974C14.9252 14.856 14.8385 14.7994 14.7654 14.727C14.6923 14.6546 14.6348 14.5686 14.5932 14.4701C14.5515 14.3713 14.5306 14.264 14.5306 14.1482C14.5306 14.0325 14.5515 13.9252 14.5932 13.8264C14.6348 13.7279 14.6923 13.6423 14.7654 13.5699C14.8385 13.4975 14.9252 13.4406 15.0261 13.3995C15.1271 13.3579 15.2368 13.3373 15.3553 13.3373ZM6.71921 14.1431C6.71921 13.8734 6.89516 13.6519 7.18258 13.6519C7.45722 13.6519 7.64261 13.8639 7.64261 14.1431C7.64261 14.4224 7.45722 14.634 7.18258 14.634C6.89516 14.634 6.71921 14.4128 6.71921 14.1431ZM7.95565 14.1431V13.3759H7.62355V13.5622C7.5179 13.424 7.35847 13.3373 7.14124 13.3373C6.71305 13.3373 6.37767 13.6742 6.37767 14.1431C6.37767 14.6116 6.71305 14.9489 7.14124 14.9489C7.35847 14.9489 7.5179 14.8622 7.62355 14.724V14.9103H7.95565V14.1431ZM6.08368 14.9103V13.9473C6.08368 13.5846 5.85366 13.3407 5.48322 13.3373C5.28831 13.334 5.08682 13.395 4.94639 13.6103C4.84108 13.4402 4.67469 13.3373 4.44139 13.3373C4.27865 13.3373 4.11885 13.3855 3.99415 13.5652V13.3759H3.66211V14.9103H3.99744V14.0597C3.99744 13.7933 4.14445 13.6519 4.37117 13.6519C4.59168 13.6519 4.70358 13.7963 4.70358 14.0564V14.9103H5.03891V14.0597C5.03891 13.7933 5.1925 13.6519 5.41264 13.6519C5.63973 13.6519 5.74834 13.7963 5.74834 14.0564V14.9103H6.08368Z" fill="#9A9C9E"/>
<path d="M19.2318 6.2269C19.2318 9.41879 16.6569 12.0063 13.4806 12.0063C12.1389 12.0063 10.9043 11.5444 9.92578 10.7706C11.2638 9.71238 12.1228 8.07034 12.1228 6.2269C12.1228 4.38348 11.2638 2.74141 9.92578 1.68319C10.9043 0.909377 12.1389 0.44751 13.4806 0.44751C16.6569 0.44751 19.2318 3.03499 19.2318 6.2269Z" fill="#0099DF"/>
<path d="M7.73391 6.2269C7.73391 4.38348 8.59294 2.74141 9.9306 1.68319C8.95239 0.909377 7.71785 0.44751 6.3761 0.44751C3.19979 0.44751 0.625 3.03499 0.625 6.2269C0.625 9.41879 3.19979 12.0063 6.3761 12.0063C7.71785 12.0063 8.95239 11.5444 9.9306 10.7706C8.59294 9.71238 7.73391 8.07034 7.73391 6.2269Z" fill="#EB001B"/>
</g>
<defs>
<clipPath id="clip0_755_10460">
<rect width="19" height="15" fill="white" transform="translate(0.5)"/>
</clipPath>
</defs>
</svg>
