<svg width="40" height="15" viewBox="0 0 40 15" fill="none" xmlns="http://www.w3.org/2000/svg">
<path fill-rule="evenodd" clip-rule="evenodd" d="M33.0975 2H26.7695C27.1097 4.10931 29.151 6.08254 31.3964 6.08254H36.4315C36.4996 5.87841 36.4996 5.60624 36.4996 5.40212C36.4996 3.49693 35.0027 2 33.0975 2Z" fill="url(#paint0_linear_755_10469)"/>
<path fill-rule="evenodd" clip-rule="evenodd" d="M27.3145 6.42273V11.5259H30.3764V8.80421H33.0981C34.595 8.80421 35.8878 7.78358 36.296 6.42273H27.3145Z" fill="#4DB45F"/>
<path fill-rule="evenodd" clip-rule="evenodd" d="M16.4277 2V11.5259H19.1494C19.1494 11.5259 19.8299 11.5259 20.1701 10.8455C22.0072 7.17122 22.5515 6.08254 22.5515 6.08254H22.8918V11.5259H25.9537V2H23.232C23.232 2 22.5515 2.06804 22.2113 2.68042C20.6464 5.81037 19.8299 7.44339 19.8299 7.44339H19.4896V2H16.4277Z" fill="#4DB45F"/>
<path fill-rule="evenodd" clip-rule="evenodd" d="M3.5 11.5259V2H6.5619C6.5619 2 7.44646 2 7.92275 3.36085C9.14751 6.96709 9.2836 7.44339 9.2836 7.44339C9.2836 7.44339 9.55577 6.55884 10.6444 3.36085C11.1207 2 12.0053 2 12.0053 2H15.0672V11.5259H12.0053V6.42275H11.6651L9.96402 11.5259H8.60317L6.90212 6.42275H6.5619V11.5259H3.5Z" fill="#4DB45F"/>
<defs>
<linearGradient id="paint0_linear_755_10469" x1="26.752" y1="4.04127" x2="36.4996" y2="4.04127" gradientUnits="userSpaceOnUse">
<stop stop-color="#00B4E6"/>
<stop offset="1" stop-color="#088CCB"/>
</linearGradient>
</defs>
</svg>
