<svg width="20" height="15" viewBox="0 0 20 15" fill="none" xmlns="http://www.w3.org/2000/svg">
<g clip-path="url(#clip0_755_10452)">
<path d="M19.1116 14.7969V14.8359H19.1471C19.1549 14.8359 19.1617 14.834 19.1665 14.831C19.171 14.828 19.1736 14.8226 19.1736 14.8162C19.1736 14.8097 19.171 14.8048 19.1665 14.8018C19.1617 14.7984 19.1549 14.7969 19.1471 14.7969H19.1116ZM19.1474 14.7696C19.1658 14.7696 19.18 14.7737 19.1901 14.7821C19.2001 14.7904 19.205 14.8018 19.205 14.8162C19.205 14.8283 19.2012 14.8382 19.193 14.8461C19.1852 14.8537 19.174 14.8586 19.159 14.8605L19.2061 14.9155H19.1695L19.1258 14.8609H19.1116V14.9155H19.081V14.7696H19.1474ZM19.1381 14.9658C19.1549 14.9658 19.1706 14.9624 19.1848 14.956C19.1994 14.9496 19.212 14.9409 19.2229 14.9298C19.2338 14.9189 19.2423 14.906 19.2487 14.8908C19.2547 14.8761 19.258 14.8601 19.258 14.8431C19.258 14.8261 19.2547 14.8101 19.2487 14.7954C19.2423 14.7806 19.2338 14.7673 19.2229 14.7563C19.212 14.7453 19.1994 14.7366 19.1848 14.7302C19.1706 14.7241 19.1549 14.7211 19.1381 14.7211C19.1213 14.7211 19.1052 14.7241 19.0907 14.7302C19.0758 14.7366 19.0627 14.7453 19.0519 14.7563C19.041 14.7673 19.0325 14.7806 19.0265 14.7954C19.0201 14.8101 19.0172 14.8261 19.0172 14.8431C19.0172 14.8601 19.0201 14.8761 19.0265 14.8908C19.0325 14.906 19.041 14.9189 19.0519 14.9298C19.0627 14.9409 19.0758 14.9496 19.0907 14.956C19.1052 14.9624 19.1213 14.9658 19.1381 14.9658ZM19.1381 14.6859C19.1602 14.6859 19.1803 14.69 19.1997 14.6983C19.2188 14.7063 19.2353 14.7176 19.2498 14.7321C19.264 14.7461 19.2752 14.7628 19.2834 14.7821C19.2916 14.801 19.2957 14.8215 19.2957 14.8431C19.2957 14.8647 19.2916 14.8851 19.2834 14.9041C19.2752 14.923 19.264 14.9397 19.2498 14.9541C19.2353 14.9681 19.2188 14.9795 19.1997 14.9878C19.1803 14.9962 19.1602 15.0003 19.1381 15.0003C19.1157 15.0003 19.0952 14.9962 19.0758 14.9878C19.0564 14.9795 19.0396 14.9681 19.0253 14.9541C19.0112 14.9397 18.9999 14.923 18.9918 14.9041C18.9835 14.8851 18.9794 14.8647 18.9794 14.8431C18.9794 14.8215 18.9835 14.801 18.9918 14.7821C18.9999 14.7628 19.0112 14.7461 19.0253 14.7321C19.0396 14.7176 19.0564 14.7063 19.0758 14.6983C19.0952 14.69 19.1157 14.6859 19.1381 14.6859ZM4.58903 14.1239C4.58903 13.8457 4.76864 13.6173 5.06216 13.6173C5.3426 13.6173 5.53193 13.8359 5.53193 14.1239C5.53193 14.4119 5.3426 14.6305 5.06216 14.6305C4.76864 14.6305 4.58903 14.402 4.58903 14.1239ZM5.85158 14.1239V13.3327H5.51251V13.5248C5.40496 13.3824 5.24177 13.2929 5.01996 13.2929C4.58268 13.2929 4.23987 13.6408 4.23987 14.1239C4.23987 14.6074 4.58268 14.9549 5.01996 14.9549C5.24177 14.9549 5.40496 14.8655 5.51251 14.723V14.9151H5.85158V14.1239ZM17.3098 14.1239C17.3098 13.8457 17.4894 13.6173 17.783 13.6173C18.0638 13.6173 18.2527 13.8359 18.2527 14.1239C18.2527 14.4119 18.0638 14.6305 17.783 14.6305C17.4894 14.6305 17.3098 14.402 17.3098 14.1239ZM18.5728 14.1239V12.6973H18.2333V13.5248C18.1258 13.3824 17.9626 13.2929 17.7408 13.2929C17.3035 13.2929 16.9607 13.6408 16.9607 14.1239C16.9607 14.6074 17.3035 14.9549 17.7408 14.9549C17.9626 14.9549 18.1258 14.8655 18.2333 14.723V14.9151H18.5728V14.1239ZM10.0605 13.601C10.2789 13.601 10.4194 13.7401 10.4552 13.9848H9.64595C9.68222 13.7563 9.81885 13.601 10.0605 13.601ZM10.0672 13.2929C9.61014 13.2929 9.29048 13.6306 9.29048 14.1239C9.29048 14.6271 9.62321 14.9549 10.09 14.9549C10.3249 14.9549 10.54 14.8954 10.7293 14.7332L10.5631 14.4782C10.4324 14.5839 10.2659 14.6438 10.1094 14.6438C9.89094 14.6438 9.6919 14.5411 9.64301 14.2561H10.801C10.8044 14.2133 10.8077 14.1702 10.8077 14.1239C10.8044 13.6306 10.5041 13.2929 10.0672 13.2929ZM14.1614 14.1239C14.1614 13.8457 14.3411 13.6173 14.6346 13.6173C14.9151 13.6173 15.1044 13.8359 15.1044 14.1239C15.1044 14.4119 14.9151 14.6305 14.6346 14.6305C14.3411 14.6305 14.1614 14.402 14.1614 14.1239ZM15.424 14.1239V13.3327H15.085V13.5248C14.977 13.3824 14.8142 13.2929 14.5924 13.2929C14.1551 13.2929 13.8123 13.6408 13.8123 14.1239C13.8123 14.6074 14.1551 14.9549 14.5924 14.9549C14.8142 14.9549 14.977 14.8655 15.085 14.723V14.9151H15.424V14.1239ZM12.2465 14.1239C12.2465 14.604 12.5759 14.9549 13.0785 14.9549C13.3134 14.9549 13.4699 14.9018 13.6394 14.7662L13.4766 14.488C13.3493 14.5809 13.2156 14.6305 13.0684 14.6305C12.7977 14.6271 12.5987 14.4286 12.5987 14.1239C12.5987 13.8193 12.7977 13.6207 13.0684 13.6173C13.2156 13.6173 13.3493 13.6669 13.4766 13.7597L13.6394 13.4816C13.4699 13.346 13.3134 13.2929 13.0785 13.2929C12.5759 13.2929 12.2465 13.6438 12.2465 14.1239ZM16.6183 13.2929C16.4226 13.2929 16.2952 13.3858 16.2071 13.5248V13.3327H15.871V14.9151H16.2105V14.0281C16.2105 13.7662 16.3213 13.6207 16.5432 13.6207C16.6119 13.6207 16.6836 13.6306 16.7553 13.6605L16.8598 13.3361C16.7848 13.3062 16.6869 13.2929 16.6183 13.2929ZM7.52866 13.4585C7.36543 13.3494 7.14066 13.2929 6.89268 13.2929C6.49759 13.2929 6.24331 13.4851 6.24331 13.7995C6.24331 14.0576 6.43265 14.2167 6.78144 14.2664L6.94162 14.2895C7.12759 14.316 7.21533 14.3657 7.21533 14.4551C7.21533 14.5775 7.09137 14.6472 6.85986 14.6472C6.62495 14.6472 6.45539 14.571 6.34116 14.4816L6.18132 14.7495C6.3673 14.8885 6.60215 14.9549 6.85646 14.9549C7.30682 14.9549 7.56787 14.7396 7.56787 14.4384C7.56787 14.1603 7.3625 14.0148 7.02303 13.9651L6.8632 13.9416C6.71644 13.922 6.59881 13.8924 6.59881 13.7863C6.59881 13.6703 6.7097 13.601 6.89567 13.601C7.09471 13.601 7.28742 13.6772 7.3819 13.7367L7.52866 13.4585ZM11.9037 13.2929C11.708 13.2929 11.5807 13.3858 11.4929 13.5248V13.3327H11.1569V14.9151H11.4959V14.0281C11.4959 13.7662 11.6069 13.6207 11.8286 13.6207C11.8974 13.6207 11.9691 13.6306 12.0408 13.6605L12.1453 13.3361C12.0703 13.3062 11.9724 13.2929 11.9037 13.2929ZM9.01003 13.3327H8.45551V12.8526H8.11271V13.3327H7.79639V13.6472H8.11271V14.3691C8.11271 14.7362 8.25308 14.9549 8.65415 14.9549C8.80126 14.9549 8.97082 14.9087 9.07837 14.8325L8.98055 14.5376C8.87933 14.5972 8.76844 14.6271 8.68029 14.6271C8.51079 14.6271 8.45551 14.521 8.45551 14.3623V13.6472H9.01003V13.3327ZM3.94001 14.9151V13.922C3.94001 13.5479 3.70512 13.2963 3.32647 13.2929C3.12743 13.2895 2.92204 13.3524 2.77827 13.5745C2.67073 13.399 2.50119 13.2929 2.26294 13.2929C2.09639 13.2929 1.93358 13.3426 1.80624 13.5279V13.3327H1.4668V14.9151H1.80923V14.0379C1.80923 13.7632 1.95935 13.6173 2.19124 13.6173C2.41642 13.6173 2.53032 13.7662 2.53032 14.0345V14.9151H2.87312V14.0379C2.87312 13.7632 3.02959 13.6173 3.25477 13.6173C3.48629 13.6173 3.5972 13.7662 3.5972 14.0345V14.9151H3.94001Z" fill="#9A9C9E"/>
<path d="M19.321 9.65226V9.42114H19.2616L19.1929 9.57991L19.1246 9.42114H19.0648V9.65226H19.107V9.47797L19.1712 9.62837H19.2149L19.2792 9.47757V9.65226H19.321ZM18.9442 9.65226V9.46055H19.0204V9.42149H18.8262V9.46055H18.9024V9.65226H18.9442Z" fill="#F79410"/>
<path d="M12.5687 10.6466H7.42969V1.27515H12.5687V10.6466Z" fill="#FF5F00"/>
<path d="M7.75944 5.9601C7.75944 4.05907 8.63661 2.36567 10.0026 1.27437C9.00371 0.476366 7.74297 6.10352e-05 6.3729 6.10352e-05C3.1293 6.10352e-05 0.5 2.66843 0.5 5.9601C0.5 9.2518 3.1293 11.9202 6.3729 11.9202C7.74297 11.9202 9.00371 11.4439 10.0026 10.6459C8.63661 9.55457 7.75944 7.86118 7.75944 5.9601Z" fill="#EB001B"/>
<path d="M19.501 5.96004C19.501 9.25173 16.8717 11.9201 13.6281 11.9201C12.258 11.9201 10.9973 11.4438 9.99805 10.6458C11.3644 9.5545 12.2416 7.86112 12.2416 5.96004C12.2416 4.05901 11.3644 2.36561 9.99805 1.27431C10.9973 0.476305 12.258 0 13.6281 0C16.8717 0 19.501 2.66837 19.501 5.96004Z" fill="#F79E1B"/>
</g>
<defs>
<clipPath id="clip0_755_10452">
<rect width="19" height="15" fill="white" transform="translate(0.5)"/>
</clipPath>
</defs>
</svg>
