<svg width="34" height="15" viewBox="0 0 34 15" fill="none" xmlns="http://www.w3.org/2000/svg">
<path d="M5.64736 3.43157C5.22919 3.14409 4.6835 3 4.01031 3H1.40408C1.1977 3 1.08369 3.10321 1.06203 3.30944L0.00332325 9.9552C-0.00768003 10.0205 0.00865059 10.0802 0.0521658 10.1344C0.0954321 10.1888 0.149851 10.2158 0.215024 10.2158H1.45297C1.6701 10.2158 1.78944 10.1129 1.81135 9.90641L2.1045 8.11472C2.11521 8.02789 2.15339 7.95729 2.21857 7.90292C2.28369 7.84865 2.36515 7.81315 2.46288 7.79692C2.56062 7.78079 2.65277 7.77262 2.7398 7.77262C2.82659 7.77262 2.9297 7.77815 3.04934 7.78895C3.16868 7.79976 3.24476 7.80508 3.27737 7.80508C4.21121 7.80508 4.94419 7.54195 5.47639 7.01509C6.00833 6.48853 6.2746 5.75833 6.2746 4.8242C6.2746 4.18352 6.06534 3.71934 5.64736 3.43142V3.43157ZM4.30362 5.42709C4.24915 5.80722 4.10814 6.05686 3.88011 6.17635C3.65203 6.296 3.32626 6.35554 2.90281 6.35554L2.36524 6.37177L2.64222 4.62883C2.66383 4.50949 2.73438 4.44974 2.85392 4.44974H3.16351C3.59766 4.44974 3.91277 4.51232 4.10824 4.63699C4.30361 4.76196 4.36879 5.02539 4.30362 5.42709Z" fill="#003087"/>
<path d="M33.1504 3H31.9451C31.8253 3 31.7548 3.05975 31.7333 3.17929L30.6745 9.9555L30.6582 9.98806C30.6582 10.0426 30.6799 10.094 30.7235 10.1429C30.7666 10.1916 30.8212 10.2161 30.8863 10.2161H31.9615C32.1675 10.2161 32.2816 10.1131 32.3036 9.90666L33.3623 3.24446V3.22828C33.3623 3.07618 33.2915 3.0002 33.1504 3.0002V3Z" fill="#009CDE"/>
<path d="M18.5899 5.62275C18.5899 5.56858 18.5681 5.5169 18.525 5.46815C18.4814 5.41931 18.4325 5.39471 18.3783 5.39471H17.1241C17.0044 5.39471 16.9067 5.44928 16.8308 5.55757L15.1042 8.09873L14.3875 5.65541C14.3329 5.48179 14.2136 5.39471 14.0292 5.39471H12.8073C12.7529 5.39471 12.704 5.41921 12.6609 5.46815C12.6173 5.5169 12.5957 5.56868 12.5957 5.62275C12.5957 5.6446 12.7016 5.96484 12.9133 6.58381C13.125 7.20298 13.353 7.87084 13.5974 8.5876C13.8418 9.3042 13.9693 9.68449 13.9802 9.72755C13.0897 10.944 12.6446 11.5955 12.6446 11.6823C12.6446 11.8235 12.715 11.8941 12.8563 11.8941H14.1106C14.23 11.8941 14.3277 11.8399 14.4038 11.7312L18.5576 5.73671C18.5791 5.7152 18.5899 5.67736 18.5899 5.6227V5.62275Z" fill="#003087"/>
<path d="M30.2689 5.39478H29.0309C28.8787 5.39478 28.7867 5.57402 28.7541 5.93245C28.4714 5.49819 27.956 5.28076 27.2065 5.28076C26.4247 5.28076 25.7595 5.57402 25.2112 6.16043C24.6628 6.74684 24.3887 7.43661 24.3887 8.22925C24.3887 8.87008 24.576 9.38041 24.9505 9.76035C25.3252 10.1407 25.8273 10.3305 26.4574 10.3305C26.7723 10.3305 27.0926 10.2652 27.4184 10.135C27.7441 10.0047 27.9991 9.83105 28.1841 9.61377C28.1841 9.62468 28.173 9.67337 28.1515 9.7602C28.1295 9.84723 28.1188 9.9126 28.1188 9.95567C28.1188 10.1296 28.1892 10.2163 28.3306 10.2163H29.4547C29.6607 10.2163 29.7803 10.1133 29.8128 9.90683L30.4807 5.65537C30.4914 5.59015 30.4752 5.53055 30.4318 5.47618C30.3882 5.42201 30.334 5.39478 30.2689 5.39478ZM28.1432 8.60386C27.8663 8.87536 27.5323 9.01103 27.1415 9.01103C26.8264 9.01103 26.5714 8.9243 26.3759 8.75044C26.1803 8.57707 26.0826 8.33814 26.0826 8.03373C26.0826 7.63223 26.2183 7.29257 26.4899 7.0157C26.761 6.73877 27.098 6.60036 27.4998 6.60036C27.8036 6.60036 28.0561 6.68993 28.2572 6.86902C28.4579 7.04826 28.5587 7.29531 28.5587 7.61033C28.5586 8.00122 28.4201 8.33251 28.1432 8.60386Z" fill="#009CDE"/>
<path d="M11.7652 5.39478H10.5272C10.3749 5.39478 10.2828 5.57402 10.2502 5.93245C9.957 5.49819 9.44114 5.28076 8.70273 5.28076C7.92086 5.28076 7.25564 5.57402 6.70732 6.16043C6.15885 6.74684 5.88477 7.43661 5.88477 8.22925C5.88477 8.87008 6.07212 9.38041 6.44678 9.76035C6.82143 10.1407 7.32355 10.3305 7.95347 10.3305C8.25738 10.3305 8.57249 10.2652 8.8982 10.135C9.22397 10.0047 9.48461 9.83105 9.68008 9.61377C9.63651 9.74397 9.6149 9.85804 9.6149 9.95567C9.6149 10.1296 9.68545 10.2163 9.82665 10.2163H10.9506C11.1567 10.2163 11.2763 10.1133 11.3089 9.90683L11.9768 5.65537C11.9875 5.59015 11.9712 5.53055 11.9279 5.47618C11.8845 5.42201 11.8302 5.39478 11.7652 5.39478ZM9.63945 8.61192C9.36248 8.87829 9.02297 9.01103 8.62143 9.01103C8.30632 9.01103 8.05384 8.9243 7.86395 8.75044C7.67381 8.57707 7.57886 8.33814 7.57886 8.03373C7.57886 7.63223 7.71453 7.29257 7.98613 7.0157C8.25743 6.73877 8.59409 6.60031 8.99604 6.60031C9.29994 6.60031 9.55242 6.68993 9.75351 6.86902C9.95426 7.04826 10.0548 7.29531 10.0548 7.61033C10.0548 8.01212 9.91637 8.34615 9.63945 8.61192Z" fill="#003087"/>
<path d="M24.1513 3.43157C23.7332 3.14409 23.1877 3 22.5144 3H19.9244C19.7071 3 19.5876 3.10321 19.566 3.30944L18.5072 9.9552C18.4962 10.0205 18.5126 10.0802 18.5561 10.1344C18.5992 10.1888 18.6538 10.2158 18.7189 10.2158H20.0546C20.1849 10.2158 20.2717 10.1453 20.3152 10.0041L20.6085 8.11472C20.6193 8.02789 20.6572 7.95729 20.7225 7.90292C20.7877 7.84865 20.869 7.81315 20.9669 7.79692C21.0645 7.78079 21.1567 7.77262 21.2438 7.77262C21.3306 7.77262 21.4336 7.77815 21.5532 7.78895C21.6726 7.79976 21.7489 7.80508 21.7812 7.80508C22.7152 7.80508 23.4481 7.54195 23.9803 7.01509C24.5124 6.48853 24.7784 5.75833 24.7784 4.8242C24.7785 4.18352 24.5693 3.71929 24.1513 3.43142V3.43157ZM22.4818 6.11113C22.2429 6.27399 21.8844 6.35539 21.4068 6.35539L20.8854 6.37172L21.1623 4.62873C21.1839 4.50944 21.2545 4.44959 21.374 4.44959H21.6672C21.9061 4.44959 22.0961 4.46049 22.2375 4.48215C22.3784 4.50396 22.5144 4.57172 22.6446 4.68569C22.775 4.79975 22.8401 4.96545 22.8401 5.18253C22.8401 5.63879 22.7205 5.94812 22.4818 6.11113Z" fill="#009CDE"/>
</svg>
